<svg width="300" height="300" xmlns="http://www.w3.org/2000/svg">
 <g>
  <title>Layer 1</title>
  <path id="svg_58" fill="#545454" d="m73.43333,179.73333c-4.7,0 -8.8,-0.8 -12.3,-2.3c-3.5,-1.5 -6.4,-3.7 -8.6,-6.4c-2.3,-2.7 -4,-5.9 -5.2,-9.6c-1.2,-3.7 -1.7,-7.6 -1.7,-11.9c0,-4.3 0.6,-8.3 1.7,-12c1.2,-3.7 2.9,-7 5.2,-9.7c2.3,-2.7 5.2,-4.9 8.6,-6.5c3.5,-1.6 7.6,-2.4 12.3,-2.4s8.8,0.8 12.3,2.4c3.5,1.6 6.4,3.7 8.8,6.5c2.3,2.7 4,6 5.2,9.7c1.1,3.7 1.7,7.7 1.7,12s-0.6,8.2 -1.7,11.9c-1.1,3.7 -2.8,6.9 -5.2,9.6c-2.3,2.7 -5.2,4.9 -8.8,6.4c-3.4,1.6 -7.6,2.3 -12.3,2.3zm0,-12.1c4.2,0 7.2,-1.6 9,-4.7c1.8,-3.1 2.7,-7.6 2.7,-13.4c0,-5.8 -0.9,-10.3 -2.7,-13.4c-1.8,-3.1 -4.8,-4.7 -9,-4.7c-4.1,0 -7.1,1.6 -8.9,4.7c-1.8,3.1 -2.8,7.6 -2.8,13.4c0,5.8 0.9,10.3 2.8,13.4c1.8,3.2 4.8,4.7 8.9,4.7zm51.8,-14.5c-4.2,-1.2 -7.5,-3 -9.8,-5.3c-2.4,-2.4 -3.5,-5.9 -3.5,-10.6c0,-5.7 2,-10.1 6.1,-13.4c4.1,-3.2 9.6,-4.8 16.7,-4.8a49.13,49.13 0 0 1 17.2,3.2c-0.2,1.9 -0.5,4 -1.1,6.1c-0.6,2.1 -1.3,3.9 -2.1,5.5c-1.8,-0.7 -3.8,-1.4 -5.9,-2c-2.2,-0.6 -4.5,-0.8 -6.8,-0.8c-2.5,0 -4.5,0.4 -5.9,1.2c-1.4,0.8 -2.1,2 -2.1,3.8c0,1.6 0.5,2.8 1.5,3.5c1,0.7 2.4,1.3 4.3,1.9l6.4,1.9c2.1,0.6 4,1.3 5.7,2.2c1.7,0.9 3.1,1.9 4.3,3.2c1.2,1.3 2.1,2.8 2.8,4.7c0.7,1.9 1,4.2 1,6.8c0,2.8 -0.6,5.3 -1.7,7.7a17.6,17.6 0 0 1 -5,6.2c-2.2,1.8 -4.9,3.1 -8,4.2a35,35 0 0 1 -10.7,1.5c-1.8,0 -3.4,-0.1 -4.9,-0.2c-1.5,-0.1 -2.9,-0.3 -4.3,-0.6s-2.7,-0.6 -4.1,-1c-1.3,-0.4 -2.8,-0.9 -4.4,-1.5c0.1,-2 0.5,-4.1 1.1,-6.1c0.6,-2.1 1.3,-4.1 2.2,-6c2.5,1 4.8,1.7 7,2.2c2.2,0.5 4.5,0.7 6.9,0.7c1,0 2.2,-0.1 3.4,-0.3c1.2,-0.2 2.4,-0.5 3.4,-1s1.9,-1.1 2.6,-1.9c0.7,-0.8 1.1,-1.8 1.1,-3.1c0,-1.8 -0.5,-3.1 -1.6,-3.9c-1.1,-0.8 -2.6,-1.5 -4.5,-2.1l-7.3,-1.9zm39.3,-32.7c2.7,-0.4 5.3,-0.7 8,-0.7c2.6,0 5.3,0.2 8,0.7l0,30.7c0,3.1 0.2,5.6 0.7,7.6c0.5,2 1.2,3.6 2.2,4.7c1,1.2 2.3,2 3.8,2.5s3.3,0.7 5.3,0.7c2.8,0 5.1,-0.3 7,-0.8l0,-45.4c2.7,-0.4 5.3,-0.7 7.9,-0.7c2.6,0 5.3,0.2 8,0.7l0,55.8c-2.4,0.8 -5.6,1.6 -9.5,2.4a65.33,65.33 0 0 1 -23.3,0.3c-3.5,-0.6 -6.6,-1.9 -9.3,-3.8c-2.7,-1.9 -4.8,-4.8 -6.3,-8.5c-1.6,-3.7 -2.4,-8.7 -2.4,-14.9l0,-31.3l-0.1,0zm65.9,58c-0.4,-2.8 -0.7,-5.5 -0.7,-8.2c0,-2.7 0.2,-5.5 0.7,-8.3c2.8,-0.4 5.5,-0.7 8.2,-0.7c2.7,0 5.5,0.2 8.3,0.7c0.4,2.8 0.7,5.6 0.7,8.2c0,2.8 -0.2,5.5 -0.7,8.3c-2.8,0.4 -5.6,0.7 -8.2,0.7c-2.8,-0.1 -5.5,-0.3 -8.3,-0.7zm-0.4,-80.7c2.9,-0.4 5.8,-0.7 8.6,-0.7c2.9,0 5.8,0.2 8.8,0.7l-1.1,54.9c-2.6,0.4 -5.1,0.7 -7.5,0.7c-2.5,0 -5.1,-0.2 -7.6,-0.7l-1.2,-54.9z" class="st15"/>
  <path id="svg_59" fill="#545454" d="m149.66667,0c-82.8,0 -150,67.2 -150,150s67.2,150 150,150s150,-67.2 150,-150s-67.2,-150 -150,-150zm0,285c-74.6,0 -135,-60.4 -135,-135s60.4,-135 135,-135s135,60.4 135,135s-60.4,135 -135,135z" class="st15"/>
 </g>
</svg>